<svg xmlns="http://www.w3.org/2000/svg" viewBox="0 0 64 64"><g stroke="#FFF0BB" fill="#FFF0BB"><path d="M64.016 26c0-.03-.014-.055-.017-.084V8.914c0-3.817-3.064-6.922-6.83-6.922H6.814c-3.767 0-6.831 3.105-6.831 6.922v46.172c0 3.817 3.064 6.922 6.83 6.922h50.354c3.767 0 6.831-3.105 6.831-6.922V26.084c.003-.029.017-.054.017-.084zm-52.032 9.975H1.999v-8.95h9.985v8.95zm0-11H1.999v-8.95h9.985v8.95zm-9.985 13.05h9.985v8.95H1.999v-8.95zm12 10.06c.003-.03.017-.055.017-.085 0-.03-.014-.055-.017-.084V37.084c.003-.029.017-.054.017-.084 0-.03-.014-.055-.017-.084V26.084c.003-.029.017-.054.017-.084 0-.03-.014-.055-.017-.084V15.084c.003-.029.017-.054.017-.084 0-.03-.014-.055-.017-.084V4.008h35.985v10.908c-.003.029-.017.054-.017.084 0 .03.014.055.017.084v10.832c-.003.029-.017.054-.017.084 0 .03.014.055.017.084v10.832c-.003.029-.017.054-.017.084 0 .03.014.055.017.084v10.832c-.003.029-.017.054-.017.084 0 .03.014.055.017.084v11.908H13.999V48.084zm38-21.06h9.985v8.95h-9.985v-8.95zm0-2.05v-8.95h9.985v8.95h-9.985zm0 13.05h9.985v8.95h-9.985v-8.95zm9.985-29.11v5.06h-9.985V4.008h5.17c2.655 0 4.815 2.2 4.815 4.906zM6.814 4.007h5.17v9.967H1.999v-5.06c0-2.707 2.16-4.907 4.816-4.907zM2 55.086v-6.061h9.985v10.967h-5.17C4.16 59.992 2 57.792 2 55.086zm55.17 4.906H52V49.025h9.985v6.06c0 2.706-2.16 4.907-4.816 4.907z"/><path d="M42.429 31.125l-16-8a.978.978 0 0 0-1.415.875v16a.978.978 0 0 0 1.415.875l16-8a.979.979 0 0 0 0-1.75zm-15.46 7.292V25.583L39.805 32 26.97 38.417z"/></g></svg>