<svg xmlns="http://www.w3.org/2000/svg" width="592.875" height="592.875"><g fill="#73B6F2"><path d="M439.875 286.875h-229.5V143.438c0-47.812 38.25-86.062 86.062-86.062s86.062 38.25 86.062 86.062v76.5c0 15.3 13.388 28.688 28.688 28.688s28.688-13.388 28.688-28.688v-76.5C439.875 65.025 374.85 0 296.438 0 218.025 0 153 65.025 153 143.438v143.438c-32.513 0-57.375 24.862-57.375 57.375V535.5c0 32.513 24.862 57.375 57.375 57.375h286.875c32.513 0 57.375-24.862 57.375-57.375V344.25c0-30.6-24.862-57.375-57.375-57.375zm-267.75-143.437c0-68.85 55.462-124.312 124.312-124.312s124.312 55.462 124.312 124.312v76.5c0 5.737-3.825 9.562-9.562 9.562s-9.562-3.825-9.562-9.562v-76.5c0-57.375-47.812-105.188-105.188-105.188S191.25 86.062 191.25 143.438v143.438h-19.125V143.438zm306 392.062c0 21.037-17.213 38.25-38.25 38.25H153c-21.038 0-38.25-17.213-38.25-38.25V344.25c0-21.037 17.212-38.25 38.25-38.25h286.875c21.037 0 38.25 17.213 38.25 38.25V535.5z"/><path d="M296.438 363.375c-26.775 0-47.812 21.037-47.812 47.812 0 15.3 7.65 28.688 19.125 38.25v38.25c0 15.3 13.388 28.688 28.688 28.688s28.688-13.388 28.688-28.688v-38.25c11.475-9.562 19.125-22.95 19.125-38.25-.002-26.775-21.039-47.812-47.814-47.812zM306 437.963v49.725c0 5.737-3.825 9.562-9.562 9.562s-9.562-3.825-9.562-9.562v-49.725c-11.475-3.825-19.125-15.301-19.125-26.775 0-15.3 13.388-28.688 28.688-28.688s28.688 13.388 28.688 28.688c-.002 13.387-7.652 22.95-19.127 26.775z"/></g></svg>