<svg width="72" height="73" xmlns="http://www.w3.org/2000/svg"><title>new_icon</title><g fill="none" fill-rule="evenodd"><g transform="rotate(-25 34.993 30.047)" stroke="#4EAB6E" stroke-width="2" fill="#FFF"><rect transform="rotate(-17 33.25 36.355)" x="9.858" y="7.285" width="46.782" height="58.14" rx="5"/><rect transform="rotate(8 33.25 36.355)" x="9.858" y="7.285" width="46.782" height="58.14" rx="5"/><rect transform="rotate(24 33.25 36.355)" x="9.858" y="7.285" width="46.782" height="58.14" rx="5"/></g><path d="M48.816 32.44c.07.411 1.666 10.158-3.059 15.756-2.1 2.489-5.124 3.751-8.985 3.751-2.906 0-8.21-.616-11.072-4.739-2.601-3.747-2.512-9.421.266-16.863l.748-2.004.281 2.12a61.84 61.84 0 0 0 .788 4.62c.306-2.362 1.373-5.609 4.657-8.081 4.148-3.124 2.928-7.42 2.915-7.463l-.52-1.747 1.38 1.19c.457.393 10.047 8.768 9.085 16.301l3.322-3.983.194 1.141z" fill="#4EAB6E" fill-rule="nonzero"/></g></svg>